<svg xmlns="http://www.w3.org/2000/svg" viewBox="0 0 1600 1200" width="1600" height="1200" font-family="Supreme, system-ui, sans-serif">
  
  <rect width="1600" height="1200" fill="#F0EBDF"></rect>

  
  <text x="80" y="100" font-family="Anton, sans-serif" font-size="56" fill="#2C2820" letter-spacing="2">COMPOSANTS.</text>
  <text x="80" y="135" font-family="JetBrains Mono, monospace" font-size="13" fill="#2C2820" letter-spacing="3" opacity="0.6">BOUTONS · BADGES · LIGNES DE LÉGENDE · ÉTATS DE FOCUS</text>
  <line x1="80" y1="160" x2="1520" y2="160" stroke="#A8A097" stroke-width="1"></line>

  
  <text x="80" y="220" font-family="JetBrains Mono, monospace" font-size="12" fill="#2C2820" letter-spacing="3" opacity="0.6">BOUTONS · CTA, GHOST, ÉTATS</text>

  
  <g transform="translate(80,250)">
    <rect width="240" height="56" rx="6" fill="#B5483A"></rect>
    <text x="120" y="36" text-anchor="middle" font-family="Supreme, sans-serif" font-weight="700" font-size="15" fill="#F0EBDF" letter-spacing="1.2">EXPLORER LA CARTE</text>
    <text x="120" y="80" text-anchor="middle" font-family="JetBrains Mono, monospace" font-size="10" fill="#2C2820" opacity="0.6">default · signal-500</text>
  </g>

  
  <g transform="translate(360,250)">
    <rect width="240" height="56" rx="6" fill="#5A1F2E"></rect>
    <text x="120" y="36" text-anchor="middle" font-family="Supreme, sans-serif" font-weight="700" font-size="15" fill="#F0EBDF" letter-spacing="1.2">EXPLORER LA CARTE</text>
    <text x="120" y="80" text-anchor="middle" font-family="JetBrains Mono, monospace" font-size="10" fill="#2C2820" opacity="0.6">hover · signal-700</text>
  </g>

  
  <g transform="translate(640,250)">
    <rect width="240" height="56" rx="6" fill="#F5DDD7" stroke="#B5483A" stroke-width="1.5"></rect>
    <text x="120" y="36" text-anchor="middle" font-family="Supreme, sans-serif" font-weight="700" font-size="15" fill="#5A1F2E" letter-spacing="1.2">VOIR LA LÉGENDE</text>
    <text x="120" y="80" text-anchor="middle" font-family="JetBrains Mono, monospace" font-size="10" fill="#2C2820" opacity="0.6">ghost · signal-100</text>
  </g>

  
  <g transform="translate(920,250)">
    <rect x="-3" y="-3" width="246" height="62" rx="9" fill="none" stroke="#B5483A" stroke-width="2" stroke-dasharray="4 4"></rect>
    <rect width="240" height="56" rx="6" fill="#B5483A"></rect>
    <text x="120" y="36" text-anchor="middle" font-family="Supreme, sans-serif" font-weight="700" font-size="15" fill="#F0EBDF" letter-spacing="1.2">EXPLORER LA CARTE</text>
    <text x="120" y="80" text-anchor="middle" font-family="JetBrains Mono, monospace" font-size="10" fill="#2C2820" opacity="0.6">focus-visible · ring</text>
  </g>

  
  <g transform="translate(1200,250)">
    <rect width="240" height="56" rx="6" fill="none" stroke="#2C2820" stroke-width="1.5"></rect>
    <text x="120" y="36" text-anchor="middle" font-family="Supreme, sans-serif" font-weight="500" font-size="15" fill="#2C2820" letter-spacing="1.2">EN SAVOIR PLUS</text>
    <text x="120" y="80" text-anchor="middle" font-family="JetBrains Mono, monospace" font-size="10" fill="#2C2820" opacity="0.6">neutral outline</text>
  </g>

  <line x1="80" y1="380" x2="1520" y2="380" stroke="#A8A097" stroke-width="0.4" opacity="0.5"></line>

  
  <text x="80" y="425" font-family="JetBrains Mono, monospace" font-size="12" fill="#2C2820" letter-spacing="3" opacity="0.6">BADGES · TAGS DE CATÉGORIE — UNE COULEUR DE FOND PAR FAMILLE</text>

  <g transform="translate(80,460)">
    <rect width="180" height="40" rx="999" fill="#DCE6E8"></rect>
    <text x="90" y="26" text-anchor="middle" font-family="Supreme, sans-serif" font-weight="700" font-size="13" fill="#3C5E68" letter-spacing="1.5">EAU</text>
  </g>
  <g transform="translate(280,460)">
    <rect width="180" height="40" rx="999" fill="#BAAFC2" opacity="0.55"></rect>
    <text x="90" y="26" text-anchor="middle" font-family="Supreme, sans-serif" font-weight="700" font-size="13" fill="#4E4360" letter-spacing="1.5">RÉSEAU</text>
  </g>
  <g transform="translate(480,460)">
    <rect width="180" height="40" rx="999" fill="#E8C282" opacity="0.6"></rect>
    <text x="90" y="26" text-anchor="middle" font-family="Supreme, sans-serif" font-weight="700" font-size="13" fill="#7A5224" letter-spacing="1.5">BÂTI</text>
  </g>
  <g transform="translate(680,460)">
    <rect width="180" height="40" rx="999" fill="#BBC5BB"></rect>
    <text x="90" y="26" text-anchor="middle" font-family="Supreme, sans-serif" font-weight="700" font-size="13" fill="#5F7066" letter-spacing="1.5">VÉGÉTATION</text>
  </g>
  <g transform="translate(880,460)">
    <rect width="180" height="40" rx="999" fill="#F5DDD7"></rect>
    <text x="90" y="26" text-anchor="middle" font-family="Supreme, sans-serif" font-weight="700" font-size="13" fill="#5A1F2E" letter-spacing="1.5">ALERTE</text>
  </g>
  <g transform="translate(1080,460)">
    <rect width="180" height="40" rx="999" fill="#D6CFC0"></rect>
    <text x="90" y="26" text-anchor="middle" font-family="Supreme, sans-serif" font-weight="700" font-size="13" fill="#2C2820" letter-spacing="1.5">NEUTRE</text>
  </g>

  <line x1="80" y1="540" x2="1520" y2="540" stroke="#A8A097" stroke-width="0.4" opacity="0.5"></line>

  
  <text x="80" y="585" font-family="JetBrains Mono, monospace" font-size="12" fill="#2C2820" letter-spacing="3" opacity="0.6">LIGNES DE LÉGENDE · COMPOSITION DES VOIES — DOUBLE TRAIT POUR HIÉRARCHIE</text>

  
  <g transform="translate(80,615)">
    <rect width="60" height="5" rx="1" fill="#4E4360"></rect>
    <rect y="6" width="60" height="3" fill="#8C7B96"></rect>
    <rect y="10" width="60" height="5" rx="1" fill="#4E4360"></rect>
    <text x="80" y="13" font-family="Supreme, sans-serif" font-weight="500" font-size="14" fill="#2C2820">Autoroute</text>
    <text x="240" y="13" font-family="JetBrains Mono, monospace" font-size="10" fill="#2C2820" opacity="0.6">network 700/500</text>
  </g>
  
  <g transform="translate(80,650)">
    <rect width="60" height="4" rx="1" fill="#4E4360"></rect>
    <rect y="5" width="60" height="2" fill="#BAAFC2"></rect>
    <rect y="8" width="60" height="4" rx="1" fill="#4E4360"></rect>
    <text x="80" y="11" font-family="Supreme, sans-serif" font-weight="500" font-size="14" fill="#2C2820">Voie rapide</text>
    <text x="240" y="11" font-family="JetBrains Mono, monospace" font-size="10" fill="#2C2820" opacity="0.6">network 700/300</text>
  </g>
  
  <g transform="translate(80,685)">
    <rect width="60" height="3" rx="1" fill="#7A5224"></rect>
    <rect y="4" width="60" height="2" fill="#E8C282"></rect>
    <rect y="7" width="60" height="3" rx="1" fill="#7A5224"></rect>
    <text x="80" y="10" font-family="Supreme, sans-serif" font-weight="500" font-size="14" fill="#2C2820">Artère urbaine</text>
    <text x="240" y="10" font-family="JetBrains Mono, monospace" font-size="10" fill="#2C2820" opacity="0.6">warm 700/300</text>
  </g>
  
  <g transform="translate(80,720)">
    <line x1="0" y1="3" x2="60" y2="3" stroke="#5F7066" stroke-width="2.2" stroke-dasharray="5 4"></line>
    <text x="80" y="8" font-family="Supreme, sans-serif" font-weight="500" font-size="14" fill="#2C2820">Mobilité douce</text>
    <text x="240" y="8" font-family="JetBrains Mono, monospace" font-size="10" fill="#2C2820" opacity="0.6">green-700 dashed</text>
  </g>

  
  <g transform="translate(700,615)">
    <rect width="50" height="20" fill="#8C7B96" stroke="#4E4360" stroke-width="1" rx="2"></rect>
    <text x="70" y="14" font-family="Supreme, sans-serif" font-weight="500" font-size="14" fill="#2C2820">Zone commerciale</text>
    <text x="280" y="14" font-family="JetBrains Mono, monospace" font-size="10" fill="#2C2820" opacity="0.6">network-500</text>
  </g>
  <g transform="translate(700,645)">
    <rect width="50" height="20" fill="#E8C282" stroke="#7A5224" stroke-width="1" rx="2"></rect>
    <text x="70" y="14" font-family="Supreme, sans-serif" font-weight="500" font-size="14" fill="#2C2820">Bâti / projet</text>
    <text x="280" y="14" font-family="JetBrains Mono, monospace" font-size="10" fill="#2C2820" opacity="0.6">warm-300</text>
  </g>
  <g transform="translate(700,675)">
    <rect width="50" height="20" fill="#BBC5BB" rx="2"></rect>
    <text x="70" y="14" font-family="Supreme, sans-serif" font-weight="500" font-size="14" fill="#2C2820">Sols perméables</text>
    <text x="280" y="14" font-family="JetBrains Mono, monospace" font-size="10" fill="#2C2820" opacity="0.6">green-300</text>
  </g>
  <g transform="translate(700,705)">
    <rect width="50" height="20" fill="#8AAFB6" rx="2"></rect>
    <text x="70" y="14" font-family="Supreme, sans-serif" font-weight="500" font-size="14" fill="#2C2820">Eau</text>
    <text x="280" y="14" font-family="JetBrains Mono, monospace" font-size="10" fill="#2C2820" opacity="0.6">water-400</text>
  </g>

  
  <g transform="translate(1100,615)">
    <circle cx="14" cy="14" r="9" fill="#F0EBDF"></circle>
    <circle cx="14" cy="14" r="6" fill="#D63A6E"></circle>
    <circle cx="14" cy="14" r="6" fill="none" stroke="#4E4360" stroke-width="1"></circle>
    <text x="40" y="19" font-family="Supreme, sans-serif" font-weight="500" font-size="14" fill="#2C2820">POI majeur (carte)</text>
    <text x="40" y="38" font-family="JetBrains Mono, monospace" font-size="10" fill="#2C2820" opacity="0.6">signal-400 · magenta de Jane</text>
  </g>
  <g transform="translate(1100,675)">
    <circle cx="14" cy="14" r="6" fill="#B5483A"></circle>
    <text x="40" y="19" font-family="Supreme, sans-serif" font-weight="500" font-size="14" fill="#2C2820">CTA / Focus (web)</text>
    <text x="40" y="38" font-family="JetBrains Mono, monospace" font-size="10" fill="#2C2820" opacity="0.6">signal-500 · rouge Travis</text>
  </g>

  <line x1="80" y1="780" x2="1520" y2="780" stroke="#A8A097" stroke-width="0.4" opacity="0.5"></line>

  
  <text x="80" y="825" font-family="JetBrains Mono, monospace" font-size="12" fill="#2C2820" letter-spacing="3" opacity="0.6">CARTE DÉMO · APPLICATION DES TOKENS — V · LE TERRITOIRE DESSINÉ</text>

  <g transform="translate(80,855)">
    <rect width="1080" height="290" fill="none" stroke="#A8A097" stroke-width="0.8"></rect>
    <svg x="0" y="0" width="1080" height="290" viewBox="0 0 800 600" preserveAspectRatio="xMidYMid slice">
      <rect width="800" height="600" fill="#F0EBDF"></rect>
      <rect x="0" y="380" width="800" height="220" fill="#BBC5BB" opacity="0.6"></rect>
      <rect x="0" y="500" width="800" height="100" fill="#8FA597" opacity="0.7"></rect>
      <ellipse cx="100" cy="510" rx="22" ry="16" fill="#5F7066" opacity="0.85"></ellipse>
      <ellipse cx="160" cy="520" rx="18" ry="14" fill="#5F7066" opacity="0.85"></ellipse>
      <ellipse cx="700" cy="515" rx="24" ry="17" fill="#5F7066" opacity="0.85"></ellipse>
      <rect x="0" y="180" width="800" height="40" fill="#8AAFB6"></rect>
      <rect x="430" y="270" width="180" height="100" fill="#8C7B96" rx="2"></rect>
      <rect x="430" y="270" width="180" height="100" fill="none" stroke="#4E4360" stroke-width="1.4" rx="2"></rect>
      <text x="520" y="324" text-anchor="middle" font-family="Anton" font-size="14" fill="#F0EBDF" letter-spacing="3">ZAC SUD I</text>
      <rect x="620" y="290" width="100" height="60" fill="#8C7B96" rx="2"></rect>
      <rect x="620" y="290" width="100" height="60" fill="none" stroke="#4E4360" stroke-width="1.1" rx="2"></rect>
      <rect x="100" y="240" width="36" height="32" fill="#D4A975" rx="1"></rect>
      <rect x="100" y="240" width="36" height="32" fill="none" stroke="#4E4360" stroke-width="0.6"></rect>
      <rect x="142" y="245" width="22" height="27" fill="#E8C282" rx="1"></rect>
      <rect x="142" y="245" width="22" height="27" fill="none" stroke="#4E4360" stroke-width="0.5"></rect>
      <rect x="170" y="250" width="28" height="22" fill="#7A5224" rx="1"></rect>
      <rect x="170" y="250" width="28" height="22" fill="none" stroke="#4E4360" stroke-width="0.5"></rect>
      <rect x="100" y="280" width="48" height="20" fill="#D4A975" rx="1"></rect>
      <rect x="100" y="280" width="48" height="20" fill="none" stroke="#4E4360" stroke-width="0.5"></rect>
      <rect x="155" y="280" width="20" height="20" fill="#E8C282" rx="1"></rect>
      <rect x="155" y="280" width="20" height="20" fill="none" stroke="#4E4360" stroke-width="0.5"></rect>
      <rect x="220" y="245" width="28" height="28" fill="#D4A975" rx="1"></rect>
      <rect x="220" y="245" width="28" height="28" fill="none" stroke="#4E4360" stroke-width="0.5"></rect>
      <rect x="252" y="248" width="20" height="25" fill="#E8C282" rx="1"></rect>
      <rect x="252" y="248" width="20" height="25" fill="none" stroke="#4E4360" stroke-width="0.5"></rect>
      <rect x="-10" y="320" width="820" height="14" fill="#4E4360"></rect>
      <rect x="-10" y="324" width="820" height="6" fill="#8C7B96"></rect>
      <rect x="380" y="-10" width="11" height="620" fill="#4E4360"></rect>
      <rect x="383" y="-10" width="5" height="620" fill="#BAAFC2"></rect>
      <rect x="-10" y="465" width="820" height="9" fill="#7A5224"></rect>
      <rect x="-10" y="468" width="820" height="3" fill="#E8C282"></rect>
      <line x1="80" y1="345" x2="380" y2="345" stroke="#A8A097" stroke-width="3" opacity="0.85"></line>
      <line x1="200" y1="245" x2="220" y2="345" stroke="#A8A097" stroke-width="2.5" opacity="0.7"></line>
      <line x1="0" y1="430" x2="800" y2="430" stroke="#5F7066" stroke-width="2.5" stroke-dasharray="5 4"></line>
      <circle cx="520" cy="320" r="9" fill="#F0EBDF"></circle>
      <circle cx="520" cy="320" r="6" fill="#D63A6E"></circle>
      <circle cx="520" cy="320" r="6" fill="none" stroke="#4E4360" stroke-width="1"></circle>
      <text x="120" y="160" font-family="Supreme" font-style="italic" font-size="14" fill="#2C2820" font-weight="500">la rivière</text>
      <text x="50" y="207" font-family="Anton" font-size="9" fill="#3C5E68" letter-spacing="3">EAU</text>
      <text x="700" y="478" font-family="Supreme" font-size="9" fill="#2C2820" letter-spacing="2.5" font-weight="500">RUE DE LA GARE</text>
      <text x="50" y="335" font-family="Anton" font-size="14" fill="#F0EBDF" letter-spacing="2">A 7</text>
      <text x="395" y="100" font-family="Anton" font-size="11" fill="#4E4360" letter-spacing="2">N 96</text>
    </svg>
  </g>

  
  <g transform="translate(1200,855)">
    <text x="0" y="20" font-family="JetBrains Mono, monospace" font-size="10" fill="#2C2820" letter-spacing="2" opacity="0.6">LÉGENDE</text>
    <g transform="translate(0,40)">
      <rect width="14" height="14" fill="#8AAFB6" rx="2"></rect>
      <text x="22" y="11" font-family="Supreme, sans-serif" font-size="12" fill="#2C2820">Eau</text>
    </g>
    <g transform="translate(0,68)">
      <rect width="14" height="14" fill="#8C7B96" stroke="#4E4360" rx="2"></rect>
      <text x="22" y="11" font-family="Supreme, sans-serif" font-size="12" fill="#2C2820">Zone commerciale</text>
    </g>
    <g transform="translate(0,96)">
      <rect width="14" height="14" fill="#E8C282" stroke="#7A5224" rx="2"></rect>
      <text x="22" y="11" font-family="Supreme, sans-serif" font-size="12" fill="#2C2820">Bâti / sodium gold</text>
    </g>
    <g transform="translate(0,124)">
      <rect width="14" height="14" fill="#BBC5BB" rx="2"></rect>
      <text x="22" y="11" font-family="Supreme, sans-serif" font-size="12" fill="#2C2820">Sols perméables</text>
    </g>
    <g transform="translate(0,152)">
      <circle cx="7" cy="7" r="5" fill="#D63A6E"></circle>
      <text x="22" y="11" font-family="Supreme, sans-serif" font-size="12" fill="#2C2820">POI · magenta de Jane</text>
    </g>
    <g transform="translate(0,180)">
      <line x1="0" y1="7" x2="14" y2="7" stroke="#5F7066" stroke-width="2" stroke-dasharray="4 3"></line>
      <text x="22" y="11" font-family="Supreme, sans-serif" font-size="12" fill="#2C2820">Mobilité douce</text>
    </g>
    <text x="0" y="240" font-family="JetBrains Mono, monospace" font-size="10" fill="#2C2820" letter-spacing="2" opacity="0.6">LE SIGNAL EST UNIQUE</text>
    <text x="0" y="258" font-family="Supreme, sans-serif" font-style="italic" font-size="11" fill="#2C2820" opacity="0.75">un seul magenta par vue —</text>
    <text x="0" y="274" font-family="Supreme, sans-serif" font-style="italic" font-size="11" fill="#2C2820" opacity="0.75">l&#39;œil va là où le signal pose.</text>
  </g>
</svg>