<svg xmlns="http://www.w3.org/2000/svg" viewBox="0 0 500 330" width="100%" height="100%" preserveAspectRatio="xMidYMid slice">
                  
                  <rect width="500" height="330" fill="#2C2820"></rect>

                  
                  <rect x="0" y="40" width="180" height="220" fill="#7A5224" opacity="0.45"></rect>
                  <rect x="0" y="40" width="180" height="220" fill="none" stroke="#2C2820" stroke-width="0.8"></rect>
                  
                  <rect x="22" y="68" width="28" height="34" fill="#2C2820"></rect>
                  <rect x="62" y="68" width="28" height="34" fill="#2C2820"></rect>
                  <rect x="102" y="68" width="28" height="34" fill="#2C2820"></rect>
                  <rect x="142" y="68" width="28" height="34" fill="#2C2820"></rect>
                  
                  <rect x="22" y="115" width="28" height="34" fill="#2C2820"></rect>
                  <rect x="62" y="115" width="28" height="34" fill="#7A5224" opacity="0.8"></rect>
                  <rect x="102" y="115" width="28" height="34" fill="#2C2820"></rect>
                  <rect x="142" y="115" width="28" height="34" fill="#2C2820"></rect>
                  
                  <rect x="22" y="162" width="28" height="34" fill="#2C2820"></rect>
                  <rect x="62" y="162" width="28" height="34" fill="#2C2820"></rect>
                  <rect x="102" y="162" width="28" height="34" fill="#2C2820"></rect>
                  <rect x="142" y="162" width="28" height="34" fill="#2C2820"></rect>

                  
                  <rect x="0" y="260" width="500" height="70" fill="#5F7066"></rect>

                  
                  
                  <polygon points="180,80 500,80 500,140 180,160" fill="#8FA597"></polygon>
                  <polygon points="180,80 500,80 500,140 180,160" fill="none" stroke="#2C2820" stroke-width="1.2"></polygon>

                  
                  <rect x="220" y="48" width="220" height="32" fill="#F0EBDF"></rect>
                  <text x="330" y="70" text-anchor="middle" font-family="Anton" font-size="13" fill="#B5483A" letter-spacing="3">PHILLIES</text>
                  <text x="240" y="70" text-anchor="middle" font-family="Supreme" font-weight="700" font-size="9" fill="#2C2820">5¢</text>

                  
                  <polygon points="190,90 490,90 490,235 195,260" fill="#E8C282"></polygon>
                  <polygon points="190,90 490,90 490,235 195,260" fill="none" stroke="#2C2820" stroke-width="1"></polygon>

                  
                  <polygon points="195,200 490,200 490,240 195,255" fill="#D4A975"></polygon>
                  
                  <polygon points="195,196 490,196 490,202 195,206" fill="#7A5224"></polygon>

                  
                  <rect x="220" y="155" width="14" height="40" fill="#A8A097"></rect>
                  <ellipse cx="227" cy="153" rx="8" ry="3" fill="#D6CFC0"></ellipse>
                  <rect x="245" y="155" width="14" height="40" fill="#A8A097"></rect>
                  <ellipse cx="252" cy="153" rx="8" ry="3" fill="#D6CFC0"></ellipse>

                  
                  
                  <ellipse cx="245" cy="135" rx="10" ry="11" fill="#D6CFC0"></ellipse>
                  <rect x="240" y="118" width="20" height="6" fill="#2C2820"></rect> 
                  <rect x="232" y="146" width="26" height="55" fill="#7A5224"></rect>

                  
                  <ellipse cx="320" cy="138" rx="10" ry="11" fill="#D6CFC0"></ellipse>
                  <rect x="313" y="119" width="22" height="8" fill="#2C2820"></rect> 
                  <rect x="307" y="148" width="26" height="55" fill="#2C2820"></rect>
                  
                  <line x1="320" y1="170" x2="335" y2="172" stroke="#D4A975" stroke-width="2.5"></line>

                  
                  <ellipse cx="350" cy="140" rx="10" ry="11" fill="#D4A975"></ellipse>
                  
                  <path d="M340,130 Q350,118 362,130 L362,142 L340,142 Z" fill="#7A5224"></path>
                  <rect x="340" y="150" width="22" height="55" fill="#B5483A"></rect>
                  
                  <line x1="357" y1="175" x2="372" y2="180" stroke="#D4A975" stroke-width="2"></line>

                  
                  <ellipse cx="420" cy="148" rx="10" ry="11" fill="#D4A975"></ellipse>
                  <rect x="412" y="135" width="18" height="6" fill="#F0EBDF"></rect> 
                  <rect x="406" y="158" width="28" height="45" fill="#F0EBDF"></rect>
                  
                  <path d="M404,165 L390,180 L398,200" fill="none" stroke="#F0EBDF" stroke-width="6"></path>
                </svg>