<svg xmlns="http://www.w3.org/2000/svg" viewBox="0 0 500 330" width="100%" height="100%" preserveAspectRatio="xMidYMid slice">
                  
                  <rect width="500" height="330" fill="#BBC5BB"></rect>

                  
                  <rect x="0" y="270" width="500" height="60" fill="#7A5224"></rect>
                  <rect x="0" y="270" width="500" height="6" fill="#2C2820"></rect>

                  
                  <rect x="20" y="50" width="240" height="190" fill="#E8C282"></rect>
                  <rect x="20" y="50" width="240" height="190" fill="none" stroke="#2C2820" stroke-width="1.5"></rect>
                  
                  <rect x="20" y="50" width="240" height="80" fill="#8AAFB6" opacity="0.55"></rect>
                  
                  <path d="M20,150 L80,115 L130,135 L180,110 L230,130 L260,120 L260,170 L20,170 Z" fill="#D6CFC0" opacity="0.55"></path>
                  <path d="M20,170 L100,140 L160,160 L220,145 L260,155 L260,200 L20,200 Z" fill="#7A5224" opacity="0.55"></path>
                  
                  <rect x="20" y="180" width="240" height="60" fill="#D4A975"></rect>
                  
                  <rect x="60" y="195" width="90" height="22" fill="#5F7066" rx="3"></rect>
                  <rect x="80" y="187" width="50" height="14" fill="#5F7066" rx="3"></rect>
                  <circle cx="80" cy="218" r="5" fill="#2C2820"></circle>
                  <circle cx="135" cy="218" r="5" fill="#2C2820"></circle>
                  
                  <rect x="83" y="190" width="44" height="9" fill="#8AAFB6" opacity="0.5"></rect>
                  
                  <line x1="140" y1="50" x2="140" y2="240" stroke="#2C2820" stroke-width="1.2"></line>
                  <line x1="20" y1="145" x2="260" y2="145" stroke="#2C2820" stroke-width="1.2"></line>

                  
                  <polygon points="20,240 260,240 320,270 50,300" fill="#E8C282" opacity="0.55"></polygon>

                  
                  
                  <rect x="420" y="135" width="60" height="105" fill="#7A5224"></rect>
                  <rect x="420" y="135" width="60" height="105" fill="none" stroke="#2C2820" stroke-width="1.2"></rect>
                  
                  <rect x="285" y="195" width="155" height="65" fill="#D63A6E"></rect>
                  <rect x="285" y="195" width="155" height="65" fill="none" stroke="#2C2820" stroke-width="0.8"></rect>
                  
                  <rect x="280" y="190" width="10" height="80" fill="#7A5224"></rect>
                  <rect x="435" y="190" width="10" height="80" fill="#7A5224"></rect>

                  
                  
                  <rect x="345" y="195" width="14" height="35" fill="#D4A975"></rect>
                  <rect x="362" y="195" width="14" height="35" fill="#D4A975"></rect>
                  
                  <path d="M335,140 L385,140 L390,200 L330,200 Z" fill="#5A1F2E"></path>
                  
                  <rect x="328" y="155" width="10" height="40" fill="#D4A975"></rect>
                  <rect x="382" y="155" width="10" height="40" fill="#D4A975"></rect>
                  
                  <circle cx="360" cy="130" r="14" fill="#D4A975"></circle>
                  <path d="M346,128 Q360,108 374,128 L376,138 L344,138 Z" fill="#E8C282"></path>

                  
                  <rect x="190" y="287" width="60" height="32" fill="#E8C282"></rect>
                  <rect x="190" y="287" width="60" height="32" fill="none" stroke="#2C2820" stroke-width="0.7"></rect>
                  <line x1="220" y1="287" x2="220" y2="285" stroke="#2C2820" stroke-width="0.8"></line>
                </svg>